<svg xmlns="http://www.w3.org/2000/svg" viewBox="0 0 697 148.95" style='color:white'><g id="Layer_2" data-name="Layer 2"><g id="Layer_1-2" data-name="Layer 1"><rect x="270.01" y="0.52" width="22.1" height="99.99" rx="2.56"/><path style='fill:white; d="M245.77,81.7a27.46,27.46,0,0,1-4.66-1.17,10.21,10.21,0,0,1-4.48-2.92,11,11,0,0,1-2.29-4.67,30.66,30.66,0,0,1-.63-6.75V3.08A2.56,2.56,0,0,0,231.15.52h-17a2.56,2.56,0,0,0-2.56,2.56V70.39a47.7,47.7,0,0,0,1.55,12.7,20.46,20.46,0,0,0,5.38,9.31,25.2,25.2,0,0,0,10.32,5.75,28.09,28.09,0,0,0,3.44.8,101.23,101.23,0,0,0,12.85,1.3,3,3,0,0,0,3.16-3V84.7A3.06,3.06,0,0,0,245.77,81.7Z"/><rect x="473.05" y="0.75" width="22.1" height="99.85" rx="1.23"/><polygon points="622.15 62.64 618.31 67.46 588.04 43.4 591.88 38.56 622.15 62.64"/><path style='fill:white; d="M606.73,67.93l-2.54,3.43-11.91,16A32.14,32.14,0,0,1,547.34,94L527.57,79.38a32.22,32.22,0,0,1-6.65-45l14.67-19.76A32,32,0,0,1,556.31,2.14l.39-.07a32,32,0,0,1,13.91,1L553.79,25.71l-.08.11L552.6,27.3,539.5,45l-1.57,2.11a11.06,11.06,0,0,0,2.27,15.29L560,77a11.12,11.12,0,0,0,15.32-2.27l14.87-20,.84.66,13.13,10.44Z"/><path style='fill:white; d="M690.71,68.46,676,88.23a31.83,31.83,0,0,1-20.74,12.53l-.37.07a32.09,32.09,0,0,1-13.92-1l17.42-23.47.59-.8,14.66-19.75a11.08,11.08,0,0,0-2.25-15.3L651.66,25.87a11.07,11.07,0,0,0-15.29,2.27L619.49,50.89l-5.88-4.68-6.44-5.13-3.47-2.76-.88-.61,16.53-22.2a32.18,32.18,0,0,1,44.94-6.67L684,23.53a32.22,32.22,0,0,1,6.67,44.93Z"/><path style='fill:white; d="M79.82,44v56.33H57.72V47.52a73.62,73.62,0,0,0-1-13.07,23,23,0,0,0-3.3-8.76,13,13,0,0,0-6.2-4.93,22,22,0,0,0-5.32-1.28H22.1v80.9H0v-95l.07,0H0V.43H30.85C33.58.3,36.37.2,39.28.2Q51,.2,58.82,3.39a30.84,30.84,0,0,1,12.52,9,34.45,34.45,0,0,1,6.57,13.89A77.92,77.92,0,0,1,79.82,44Z"/><path style='fill:white; d="M451.32,5.7h-.07l.07,0V98.25a2.51,2.51,0,0,1-2.51,2.51H431.73a2.51,2.51,0,0,1-2.51-2.51V22.34a2.49,2.49,0,0,0-2.49-2.48H409.61l-.37,0a22.23,22.23,0,0,0-5.14,1.26,13.11,13.11,0,0,0-6.2,4.93,23,23,0,0,0-3.3,8.77,71,71,0,0,0-1,11.69V98.25a2.51,2.51,0,0,1-2.51,2.51H374a2.51,2.51,0,0,1-2.51-2.51V46.53a71,71,0,0,0-1-11.69,23,23,0,0,0-3.3-8.77,13.11,13.11,0,0,0-6.2-4.93,22.23,22.23,0,0,0-5.14-1.26l-.37,0H338.39a2.49,2.49,0,0,0-2.49,2.48V98.25a2.51,2.51,0,0,1-2.51,2.51H316.31a2.51,2.51,0,0,1-2.51-2.51V5.71l.07,0h-.07V3.33A2.51,2.51,0,0,1,316.31.82h28.33c2.74-.14,5.52-.23,8.44-.23q11.67,0,19.54,3.19A33.45,33.45,0,0,1,381,8.64a2.47,2.47,0,0,0,3.1,0,33.45,33.45,0,0,1,8.39-4.86Q400.36.59,412,.59c2.92,0,5.7.09,8.43.23h28.34a2.51,2.51,0,0,1,2.51,2.51Z"/><path style='fill:white; d="M189.7,37.7l0-6.18a31.62,31.62,0,0,0-9.34-22.1l-.26-.26A31.53,31.53,0,0,0,158.49.08L158.43,0H105.35a3.84,3.84,0,0,0-3.84,3.84l0,13.61a.69.69,0,0,0,0,.13l0,1.89.37,49.69a31.91,31.91,0,0,0,27.75,31.21,30.92,30.92,0,0,0,4.43.26l24.37-.28A31.47,31.47,0,0,0,168,98.77c.31-.1.61-.22.91-.33a31.91,31.91,0,0,0,21-30v-.31ZM168.84,69.75a1.79,1.79,0,0,1,0,.24,10.62,10.62,0,0,1-1,3.24,11,11,0,0,1-9.6,6.14l-24.38.27-.62,0v-.07a11,11,0,0,1-9.3-10.6l-.41-45.58a3.85,3.85,0,0,1,3.84-3.87h25.39l.52,0a22.21,22.21,0,0,1,5.08,1.26,13,13,0,0,1,6.2,4.93,23,23,0,0,1,3.3,8.76,61.78,61.78,0,0,1,.89,8.39.86.86,0,0,0,0,.16l.1,13.61Z"/><path style='fill:white; d="M255.81,145.29a3.39,3.39,0,0,1-1.06,2.58,3.83,3.83,0,0,1-5.14,0,3.44,3.44,0,0,1-1-2.58,3.51,3.51,0,0,1,1-2.61,3.56,3.56,0,0,1,2.58-1,3.6,3.6,0,0,1,2.56,1A3.45,3.45,0,0,1,255.81,145.29Z"/><path style='fill:white; d="M283.61,148.27q-.64-1.85-1.32-3.66c-.45-1.21-.89-2.44-1.31-3.71H267.73c-.42,1.27-.86,2.51-1.29,3.73s-.87,2.44-1.3,3.64h-5.93c1.18-3.34,2.29-6.44,3.35-9.27s2.09-5.52,3.1-8.06,2-5,3-7.24,2-4.55,3.08-6.79h5.44c1.06,2.24,2.08,4.5,3.08,6.79s2,4.71,3,7.24,2.05,5.22,3.12,8.06,2.2,5.93,3.37,9.27ZM274.35,123q-1,2.4-2.37,5.83t-2.79,7.47h10.32c-1-2.68-1.9-5.19-2.8-7.51S275,124.52,274.35,123Z"/><path style='fill:white; d="M307.59,121.21c-3.23,0-5.69,1-7.4,3s-2.55,4.79-2.55,8.35a16.49,16.49,0,0,0,.61,4.64,10.17,10.17,0,0,0,1.81,3.6,8.35,8.35,0,0,0,3,2.33,9.76,9.76,0,0,0,4.19.83,24.31,24.31,0,0,0,2.58-.11,10.09,10.09,0,0,0,1.72-.29V132.3h5.7v15.07a26.35,26.35,0,0,1-4,1,33.66,33.66,0,0,1-6.47.55,16.89,16.89,0,0,1-6.2-1.09,12.8,12.8,0,0,1-4.78-3.17,14.29,14.29,0,0,1-3.05-5.11,20.44,20.44,0,0,1-1.09-7,18.85,18.85,0,0,1,1.2-7,15,15,0,0,1,3.28-5.13,13.68,13.68,0,0,1,4.89-3.19,16.27,16.27,0,0,1,6-1.09,23.49,23.49,0,0,1,3.87.29,27.13,27.13,0,0,1,2.92.66,11.34,11.34,0,0,1,2,.77c.53.27.9.47,1.11.59l-1.72,4.66a14,14,0,0,0-3.37-1.38A15.43,15.43,0,0,0,307.59,121.21Z"/><path style='fill:white; d="M323.84,148.27V116.91H344v4.85H329.54v7.73h12.85v4.75H329.54v9.19h15.52v4.84Z"/><path style='fill:white; d="M371.49,148.27c-1-1.72-2.17-3.56-3.44-5.54s-2.58-4-3.94-6-2.73-3.95-4.14-5.84-2.74-3.58-4-5.09v22.44h-5.61V116.91H355q1.8,1.91,3.89,4.51c1.39,1.73,2.78,3.53,4.19,5.4s2.76,3.75,4.07,5.64,2.48,3.64,3.51,5.27V116.91h5.65v31.36Z"/><path style='fill:white; d="M397.78,149a17.51,17.51,0,0,1-6.33-1.08,12.69,12.69,0,0,1-4.76-3.19,14.41,14.41,0,0,1-3-5.14,21.25,21.25,0,0,1-1-7,18.85,18.85,0,0,1,1.2-7,14.87,14.87,0,0,1,3.28-5.13,13.56,13.56,0,0,1,4.88-3.19,16.46,16.46,0,0,1,6-1.09,19.92,19.92,0,0,1,3.53.29,25.7,25.7,0,0,1,2.76.66,11.14,11.14,0,0,1,2,.77l1.09.59-1.68,4.66a13.5,13.5,0,0,0-3.1-1.29,14.89,14.89,0,0,0-4.37-.61,10.18,10.18,0,0,0-3.8.7,8.34,8.34,0,0,0-3.05,2.1,10,10,0,0,0-2,3.53,15.44,15.44,0,0,0-.72,4.94,17.28,17.28,0,0,0,.57,4.57,9.93,9.93,0,0,0,1.74,3.59,7.82,7.82,0,0,0,3,2.36,10.22,10.22,0,0,0,4.34.83,16.4,16.4,0,0,0,4.93-.61,18.79,18.79,0,0,0,2.94-1.15l1.54,4.66a7.74,7.74,0,0,1-1.47.72,20.26,20.26,0,0,1-2.19.71,24.18,24.18,0,0,1-2.85.54A26,26,0,0,1,397.78,149Z"/><path style='fill:white; d="M423.94,130.81c1.36-2.27,2.68-4.56,4-6.88s2.47-4.66,3.53-7h6.34q-2.54,4.8-5.28,9.53T426.65,136v12.31H421V136.06q-3.12-4.84-5.88-9.6t-5.3-9.55h6.7c1.06,2.36,2.22,4.69,3.49,7S422.55,128.54,423.94,130.81Z"/></g></g></svg>